<svg width="602" height="529" viewBox="0 0 602 529" fill="none" xmlns="http://www.w3.org/2000/svg">
<g id="letter 1" clip-path="url(#clip0_1_2)">
<g id="sobre">
<path id="Vector" d="M597.203 521.435C596.152 522.905 595.089 524.365 594.038 525.813C591.012 527.895 587.428 529.011 583.758 529H18.2424C14.7335 529 11.2996 527.991 8.35934 526.081C7.38283 524.794 6.41706 523.495 5.44055 522.197L6.41706 521.661L292.705 362.982C297.867 360.128 304.133 360.117 309.306 362.961L596.238 520.899L597.203 521.435V521.435Z" fill="#270757"/>
<path id="Vector_2" d="M583.758 187.779L335.639 44.4982C314.403 32.2336 288.23 32.2228 266.983 44.466L18.2424 187.779C8.1769 187.79 0.0107308 195.955 0 206.02V510.759C0.0107308 520.824 8.1769 528.989 18.2424 529H583.758C593.823 528.979 601.979 520.824 602 510.759V206.02C601.989 195.955 593.823 187.79 583.758 187.779ZM599.854 510.759C599.832 519.643 592.643 526.833 583.758 526.854H18.2424C9.35729 526.843 2.1569 519.643 2.14617 510.759V206.02C2.1569 197.136 9.35729 189.936 18.2424 189.925L266.983 46.6121C288.23 34.3689 314.403 34.3796 335.639 46.6443L583.758 189.925C592.643 189.936 599.843 197.136 599.854 206.02V510.759Z" fill="#270757"/>
<path id="Vector_3" d="M301.322 360.192C299.455 360.192 297.598 359.892 295.828 359.269L295.506 359.151L295.441 358.432C295.238 358.529 295.034 358.626 294.83 358.722L294.615 358.819L294.401 358.722C293.95 358.518 293.499 358.304 293.07 358.057L95.5045 247.042V20.3874C95.5152 9.43187 104.4 0.547245 115.357 0.536514H486.643C497.6 0.547245 506.485 9.43187 506.496 20.3874V247.332L506.227 247.482L309.585 358.046C307.063 359.452 304.219 360.192 301.322 360.181V360.192Z" fill="white"/>
<path id="Vector_4" d="M597.246 195.698L519.373 239.477L505.959 247.02L309.316 357.585C306.87 358.947 304.123 359.656 301.322 359.656C299.519 359.656 297.716 359.355 296.01 358.765C295.538 358.615 295.066 358.432 294.615 358.229C294.175 358.035 293.746 357.821 293.327 357.585L109.455 254.263L96.041 246.731L4.91471 195.526C4.39963 195.226 4.2172 194.571 4.50694 194.056C4.79667 193.541 5.45125 193.359 5.96633 193.648L96.041 244.263L109.455 251.795L294.379 355.707C294.991 356.05 295.635 356.351 296.289 356.598C296.568 356.705 296.858 356.801 297.148 356.887C300.86 358.025 304.874 357.595 308.265 355.707L505.959 244.563L519.373 237.02L596.195 193.831C596.71 193.541 597.364 193.723 597.654 194.239C597.944 194.754 597.761 195.408 597.246 195.698V195.698Z" fill="#ff0000"/>
</g>

<path id="paper" d="M301.322 360.729C299.39 360.729 297.48 360.417 295.656 359.774L295.001 359.548L294.969 359.237L294.604 359.398L294.175 359.205C293.703 359.001 293.242 358.765 292.791 358.518L94.9679 247.364V20.3874C94.9786 9.13142 104.1 0.0107302 115.357 0H486.643C497.9 0.0107302 507.021 9.13142 507.032 20.3874V247.643L309.842 358.518C307.235 359.967 304.305 360.729 301.322 360.729ZM297.019 357.96C300.968 359.098 305.196 358.626 308.791 356.64L504.886 246.387V20.3874C504.875 10.3225 496.709 2.15677 486.643 2.14604H115.357C105.291 2.15677 97.1248 10.3225 97.1141 20.3874V246.098L109.98 253.319L293.853 356.64C294.1 356.78 294.358 356.909 294.615 357.037C294.873 356.909 295.13 356.78 295.377 356.64L296.826 355.825L297.019 357.95V357.96Z" fill="#270757"/>
</g>
<defs>
<clipPath id="clip0_1_2">
<rect width="602" height="529" fill="white"/>
</clipPath>
</defs>
</svg>
